<svg id="Camada_1" data-name="Camada 1" xmlns="http://www.w3.org/2000/svg" viewBox="0 0 1278.37 649.11" fill="none">
  <defs>
    <linearGradient id="iconGrad" x1="0%" y1="0%" x2="100%" y2="100%">
      <stop offset="0%" stop-color="#0A4DFF" />
      <stop offset="100%" stop-color="#003CE6" />
    </linearGradient>
  </defs>
  <path d="M1639.18,675.45c-.83,3.47-.72,5.08-1.47,5.82-16.67,16.24-31.22,36-50.58,47.9C1523,768.62,1457.65,806,1392,842.79c-187.79,105.07-376.22,209-563.86,314.34-56,31.45-110.31,66-165.32,99.31-3.93,2.38-7.3,5.7-10.93,8.58l.42,3.66c5.63.86,11.26,2.47,16.89,2.49,57.1.19,114.2.12,171.29.12,67.08,0,134.15-.35,201.22.21,19.24.17,33.34-6.14,47-20.34,97.13-101.26,194.21-202.6,293.3-301.91,35.56-35.64,76.63-65.78,115.24-98.36,2.72-2.3,5.86-4.1,8.81-6.13l1.9,1.85c-3.16,4.58-6.11,9.35-9.53,13.73q-123.06,157.18-246.22,314.28c-34.19,43.55-69.15,86.51-102.77,130.49-11.1,14.5-24.22,19.47-41.65,19.44q-269.84-.42-539.67-.22-95.44,0-190.9.08c-5.2,0-10.4-.75-15.6-1.16l-.72-3c3.54-2.91,6.76-6.37,10.67-8.66,43.28-25.39,85.53-52.86,130.22-75.48Q819.5,1075.31,1138.52,917c159-78.6,319.25-154.67,479-231.83C1623.93,682,1630.57,679.28,1639.18,675.45Z" transform="translate(-360.82 -675.45)" fill="url(#iconGrad)"/>
</svg>